Coordinates
version=1
nRows=12
nColumns=24
inDegrees=yes

Units are S.I. units (second, meters, Newtons, ...)
If the header above contains a line with 'inDegrees', this indicates whether rotational values are in degrees (yes) or radians (no).

endheader
time	pelvis_tilt	pelvis_list	pelvis_rotation	pelvis_tx	pelvis_ty	pelvis_tz	hip_flexion_r	hip_adduction_r	hip_rotation_r	knee_angle_r	ankle_angle_r	subtalar_angle_r	mtp_angle_r	hip_flexion_l	hip_adduction_l	hip_rotation_l	knee_angle_l	ankle_angle_l	subtalar_angle_l	mtp_angle_l	lumbar_extension	lumbar_bending	lumbar_rotation
      2.60500000	      8.82064894	     -2.05792767	    -11.54442728	      0.74763722	      0.88840543	     -0.26171672	    -24.33296157	     -1.87510843	     -0.87075376	    -23.97542619	     14.80573382	     11.38237601	      0.00000000	     19.44279399	     -1.36708253	    -10.25561533	    -13.82974087	     -7.63894880	    -10.15786519	      0.00000000	    -17.34680910	     -0.79076198	     11.46556193
      2.61000000	      9.04564692	     -1.70252879	    -11.41468026	      0.75588696	      0.88830322	     -0.26219784	    -24.29227514	     -2.39994851	     -1.33014653	    -25.22377069	     13.66068477	     11.35835913	      0.00000000	     19.45645143	     -0.82294073	     -9.90871027	    -14.89069591	     -8.41934859	    -10.81704558	      0.00000000	    -17.39904938	     -1.27109306	     11.24855201
      2.61500000	      9.27152204	     -1.32474822	    -11.27805477	      0.76415226	      0.88826201	     -0.26275706	    -24.18520159	     -2.96143946	     -1.85716017	    -26.55708092	     12.35443459	     11.32915277	      0.00000000	     19.44957882	     -0.23857422	     -9.53190616	    -15.92442336	     -9.07162611	    -11.48293145	      0.00000000	    -17.44681388	     -1.76497917	     11.02951143
      2.62000000	      9.50409752	     -0.93298360	    -11.14415137	      0.77240289	      0.88827943	     -0.26341675	    -24.01481567	     -3.56253413	     -2.43355563	    -27.97460323	     10.87069120	     11.29230772	      0.00000000	     19.41441846	      0.38016111	     -9.13209394	    -16.93352330	     -9.58118592	    -12.19881737	      0.00000000	    -17.50874705	     -2.26121031	     10.79143179
      2.62500000	      9.73554006	     -0.51694980	    -11.00400319	      0.78067873	      0.88834270	     -0.26413037	    -23.78388111	     -4.20541862	     -3.06744996	    -29.45769405	      9.20715203	     11.20678551	      0.00000000	     19.35511630	      1.03805677	     -8.72770986	    -17.91358987	     -9.91958631	    -12.85698827	      0.00000000	    -17.55977235	     -2.77395556	     10.57422699
      2.63000000	      9.98758839	     -0.10613867	    -10.88254586	      0.78889709	      0.88846818	     -0.26492580	    -23.50678527	     -4.87993626	     -3.70790591	    -31.01079246	      7.35192122	     11.09104286	      0.00000000	     19.24952068	      1.70784109	     -8.32682142	    -18.87633193	    -10.09506430	    -13.65641150	      0.00000000	    -17.65027122	     -3.27186594	     10.29502951
      2.63500000	     10.22294457	      0.34689289	    -10.74545474	      0.79716432	      0.88861301	     -0.26573121	    -23.16660745	     -5.60305296	     -4.39380185	    -32.60282290	      5.32595223	     10.87374067	      0.00000000	     19.12680313	      2.43026045	     -7.93326345	    -19.78969836	    -10.09731397	    -14.20877223	      0.00000000	    -17.70120684	     -3.80676885	     10.11252520
      2.64000000	     10.48365951	      0.77509633	    -10.62558614	      0.80534636	      0.88882262	     -0.26659633	    -22.79703676	     -6.33296846	     -5.05052763	    -34.23609880	      3.10683080	     10.55464594	      0.00000000	     18.94879260	      3.14199266	     -7.55326610	    -20.68580031	     -9.93887872	    -14.96040972	      0.00000000	    -17.80697403	     -4.31407776	      9.81827999
      2.64500000	     10.73850088	      1.22427138	    -10.50659225	      0.81351853	      0.88906043	     -0.26746440	    -22.37874307	     -7.09660247	     -5.70039357	    -35.89150285	      0.74742895	     10.13464625	      0.00000000	     18.73898359	      3.88104791	     -7.19528512	    -21.53144842	     -9.63633809	    -15.55322114	      0.00000000	    -17.90090255	     -4.83637084	      9.58258148
      2.65000000	     10.97848613	      1.69623458	    -10.39842077	      0.82169590	      0.88930527	     -0.26830028	    -21.90446628	     -7.89930332	     -6.33236967	    -37.56331479	     -1.70855994	      9.67972715	      0.00000000	     18.51181291	      4.63534332	     -6.90343277	    -22.33755425	     -9.19276765	    -15.96809847	      0.00000000	    -17.96385309	     -5.37589764	      9.42610324
      2.65500000	     11.22302751	      2.14394373	    -10.28755716	      0.82977609	      0.88960887	     -0.26911761	    -21.39756068	     -8.67260918	     -6.90243645	    -39.24074865	     -4.26233237	      8.98213484	      0.00000000	     18.23157383	      5.37216486	     -6.60560664	    -23.07859309	     -8.66461709	    -16.43818951	      0.00000000	    -18.05416334	     -5.90093422	      9.18083943
      2.66000000	     11.46325936	      2.57987357	    -10.18179400	      0.83778083	      0.88993924	     -0.26988736	    -20.85322146	     -9.42917268	     -7.40292597	    -40.91785448	     -6.80814872	      8.19786896	      0.00000000	     17.91935472	      6.09107392	     -6.34069995	    -23.77473790	     -8.03803084	    -16.84016161	      0.00000000	    -18.15330915	     -6.40882651	      8.93720039
